<mxfile host="app.diagrams.net" modified="2024-05-29T06:15:46.622Z" agent="Mozilla/5.0 (Windows NT 10.0; Win64; x64) AppleWebKit/537.36 (KHTML, like Gecko) Chrome/125.0.0.0 Safari/537.36" etag="m5Jt3wwIZ7OVCB0SDWVP" version="24.4.9" type="device">
  <diagram id="C5RBs43oDa-KdzZeNtuy" name="Page-1">
    <mxGraphModel dx="1434" dy="780" grid="1" gridSize="10" guides="1" tooltips="1" connect="1" arrows="1" fold="1" page="1" pageScale="1" pageWidth="827" pageHeight="1169" math="0" shadow="0">
      <root>
        <mxCell id="WIyWlLk6GJQsqaUBKTNV-0" />
        <mxCell id="WIyWlLk6GJQsqaUBKTNV-1" parent="WIyWlLk6GJQsqaUBKTNV-0" />
        <mxCell id="liRB1D8NYIdWes7peHr5-12" value="TimeClok" style="swimlane;fontStyle=0;align=center;verticalAlign=top;childLayout=stackLayout;horizontal=1;startSize=55;horizontalStack=0;resizeParent=1;resizeParentMax=0;resizeLast=0;collapsible=0;marginBottom=0;html=1;whiteSpace=wrap;" vertex="1" parent="WIyWlLk6GJQsqaUBKTNV-1">
          <mxGeometry x="240" y="110" width="320" height="450" as="geometry" />
        </mxCell>
        <mxCell id="liRB1D8NYIdWes7peHr5-13" value="attributes" style="text;html=1;strokeColor=none;fillColor=none;align=center;verticalAlign=middle;spacingLeft=4;spacingRight=4;overflow=hidden;rotatable=0;points=[[0,0.5],[1,0.5]];portConstraint=eastwest;whiteSpace=wrap;" vertex="1" parent="liRB1D8NYIdWes7peHr5-12">
          <mxGeometry y="55" width="320" height="20" as="geometry" />
        </mxCell>
        <mxCell id="liRB1D8NYIdWes7peHr5-14" value="- unsigned short HH" style="text;html=1;strokeColor=none;fillColor=none;align=left;verticalAlign=middle;spacingLeft=4;spacingRight=4;overflow=hidden;rotatable=0;points=[[0,0.5],[1,0.5]];portConstraint=eastwest;whiteSpace=wrap;" vertex="1" parent="liRB1D8NYIdWes7peHr5-12">
          <mxGeometry y="75" width="320" height="20" as="geometry" />
        </mxCell>
        <mxCell id="liRB1D8NYIdWes7peHr5-16" value="- unsigned short MM" style="text;html=1;strokeColor=none;fillColor=none;align=left;verticalAlign=middle;spacingLeft=4;spacingRight=4;overflow=hidden;rotatable=0;points=[[0,0.5],[1,0.5]];portConstraint=eastwest;whiteSpace=wrap;" vertex="1" parent="liRB1D8NYIdWes7peHr5-12">
          <mxGeometry y="95" width="320" height="25" as="geometry" />
        </mxCell>
        <mxCell id="liRB1D8NYIdWes7peHr5-32" value="- unsigned short SS" style="text;html=1;strokeColor=none;fillColor=none;align=left;verticalAlign=middle;spacingLeft=4;spacingRight=4;overflow=hidden;rotatable=0;points=[[0,0.5],[1,0.5]];portConstraint=eastwest;whiteSpace=wrap;" vertex="1" parent="liRB1D8NYIdWes7peHr5-12">
          <mxGeometry y="120" width="320" height="25" as="geometry" />
        </mxCell>
        <mxCell id="liRB1D8NYIdWes7peHr5-17" value="" style="line;strokeWidth=1;fillColor=none;align=left;verticalAlign=middle;spacingTop=-1;spacingLeft=3;spacingRight=3;rotatable=0;labelPosition=right;points=[];portConstraint=eastwest;" vertex="1" parent="liRB1D8NYIdWes7peHr5-12">
          <mxGeometry y="145" width="320" height="8" as="geometry" />
        </mxCell>
        <mxCell id="liRB1D8NYIdWes7peHr5-18" value="operations" style="text;html=1;strokeColor=none;fillColor=none;align=center;verticalAlign=middle;spacingLeft=4;spacingRight=4;overflow=hidden;rotatable=0;points=[[0,0.5],[1,0.5]];portConstraint=eastwest;whiteSpace=wrap;" vertex="1" parent="liRB1D8NYIdWes7peHr5-12">
          <mxGeometry y="153" width="320" height="20" as="geometry" />
        </mxCell>
        <mxCell id="liRB1D8NYIdWes7peHr5-19" value="+ TimeClok()" style="text;html=1;strokeColor=none;fillColor=none;align=left;verticalAlign=middle;spacingLeft=4;spacingRight=4;overflow=hidden;rotatable=0;points=[[0,0.5],[1,0.5]];portConstraint=eastwest;whiteSpace=wrap;" vertex="1" parent="liRB1D8NYIdWes7peHr5-12">
          <mxGeometry y="173" width="320" height="37" as="geometry" />
        </mxCell>
        <mxCell id="liRB1D8NYIdWes7peHr5-33" value="+ set_hh(hh: int&amp;nbsp;)" style="text;html=1;strokeColor=none;fillColor=none;align=left;verticalAlign=middle;spacingLeft=4;spacingRight=4;overflow=hidden;rotatable=0;points=[[0,0.5],[1,0.5]];portConstraint=eastwest;whiteSpace=wrap;" vertex="1" parent="liRB1D8NYIdWes7peHr5-12">
          <mxGeometry y="210" width="320" height="40" as="geometry" />
        </mxCell>
        <mxCell id="liRB1D8NYIdWes7peHr5-36" value="+ set_mm(mm: int&amp;nbsp;)" style="text;html=1;strokeColor=none;fillColor=none;align=left;verticalAlign=middle;spacingLeft=4;spacingRight=4;overflow=hidden;rotatable=0;points=[[0,0.5],[1,0.5]];portConstraint=eastwest;whiteSpace=wrap;" vertex="1" parent="liRB1D8NYIdWes7peHr5-12">
          <mxGeometry y="250" width="320" height="40" as="geometry" />
        </mxCell>
        <mxCell id="liRB1D8NYIdWes7peHr5-34" value="+ set_ss(ss: int&amp;nbsp;)" style="text;html=1;strokeColor=none;fillColor=none;align=left;verticalAlign=middle;spacingLeft=4;spacingRight=4;overflow=hidden;rotatable=0;points=[[0,0.5],[1,0.5]];portConstraint=eastwest;whiteSpace=wrap;" vertex="1" parent="liRB1D8NYIdWes7peHr5-12">
          <mxGeometry y="290" width="320" height="40" as="geometry" />
        </mxCell>
        <mxCell id="liRB1D8NYIdWes7peHr5-35" value="+ get_hh(): int&amp;nbsp;" style="text;html=1;strokeColor=none;fillColor=none;align=left;verticalAlign=middle;spacingLeft=4;spacingRight=4;overflow=hidden;rotatable=0;points=[[0,0.5],[1,0.5]];portConstraint=eastwest;whiteSpace=wrap;" vertex="1" parent="liRB1D8NYIdWes7peHr5-12">
          <mxGeometry y="330" width="320" height="40" as="geometry" />
        </mxCell>
        <mxCell id="liRB1D8NYIdWes7peHr5-37" value="+ get_mm(): int&amp;nbsp;" style="text;html=1;strokeColor=none;fillColor=none;align=left;verticalAlign=middle;spacingLeft=4;spacingRight=4;overflow=hidden;rotatable=0;points=[[0,0.5],[1,0.5]];portConstraint=eastwest;whiteSpace=wrap;" vertex="1" parent="liRB1D8NYIdWes7peHr5-12">
          <mxGeometry y="370" width="320" height="40" as="geometry" />
        </mxCell>
        <mxCell id="liRB1D8NYIdWes7peHr5-38" value="+ get_ss(): int&amp;nbsp;" style="text;html=1;strokeColor=none;fillColor=none;align=left;verticalAlign=middle;spacingLeft=4;spacingRight=4;overflow=hidden;rotatable=0;points=[[0,0.5],[1,0.5]];portConstraint=eastwest;whiteSpace=wrap;" vertex="1" parent="liRB1D8NYIdWes7peHr5-12">
          <mxGeometry y="410" width="320" height="40" as="geometry" />
        </mxCell>
      </root>
    </mxGraphModel>
  </diagram>
</mxfile>
